Genre:Thriller | Horror
Language:English  http://www.imdb.com/title/tt0872230/
Source:DVD
Subtitles:Romana


Format : Matroska
File size : 1.09 GiB
Duration : 1h 47mn
Overall bit rate : 1 459 Kbps


Video
Format settings, CABAC : Yes
Format settings, ReFrames : 4 frames
Codec ID : V_MPEG4/ISO/AVC
Duration : 1h 47mn
Bit rate : 1 000 Kbps
Width : 720 pixels
Height : 304 pixels
Display aspect ratio : 2.35:1
Frame rate mode : Variable
Frame rate : 23.976 fps
Color space : YUV
Chroma subsampling : 4:2:0
Bit depth : 8 bits
Scan type : Progressive
Bits/(Pixel*Frame) : 0.191
Stream size : 754 MiB (67%)
Writing library : x264

Audio
ID : 2
Format : AC-3
Format/Info : Audio Coding 3
Mode extension : CM (complete main)
Codec ID : A_AC3
Duration : 1h 47mn
Bit rate mode : Constant
Bit rate : 448 Kbps
Channel(s) : 6 channels
Channel positions : Front: L C R, Side: L R, LFE
Sampling rate : 48.0 KHz
Bit depth : 16 bits
Video delay : -1mn 5s
Stream size : 344 MiB (31%)
Language : English


Plot:
A serial killer returns to his hometown to stalk seven children who share the same birthday as the date he was allegedly put to rest.
 
http://shareimage.org/images/ahoosiac70k6zo781j7b.png 
http://shareimage.org/images/q2m7ihtly19mm0pg4pba.png 
http://shareimage.org/images/zl6dzwfakxhixrf2jag0.png 
http://shareimage.org/images/4xj915ifs5ea0auom9.png 
http://shareimage.org/images/83qz5x6o2ximl5nr6xuq.png